<svg xmlns="http://www.w3.org/2000/svg" width="24" height="16" viewBox="0 0 24 16">
  <g id="menu" transform="translate(-3 -7.5)">
    <path id="Path_1" data-name="Path 1" d="M3,8.7A1.2,1.2,0,0,1,4.2,7.5h9.636a1.2,1.2,0,1,1,0,2.394H4.2A1.2,1.2,0,0,1,3,8.7Z" transform="translate(0)" fill="#1f222b"/>
    <path id="Path_2" data-name="Path 2" d="M3,17.7a1.2,1.2,0,0,1,1.194-1.2H25.806a1.2,1.2,0,0,1,0,2.394H4.194A1.2,1.2,0,0,1,3,17.7Z" transform="translate(0 -2.205)" fill="#1f222b"/>
    <path id="Path_3" data-name="Path 3" d="M4.2,25.515a1.2,1.2,0,1,0,0,2.394H18.644a1.2,1.2,0,0,0,0-2.394Z" transform="translate(0 -4.409)" fill="#1f222b"/>
  </g>
</svg>
