<svg xmlns="http://www.w3.org/2000/svg" width="21" height="22" viewBox="0 0 21 22">
  <g id="notifications" transform="translate(-3.05 -1)">
    <path id="Path_4" data-name="Path 4" d="M17.082,33.507A1.758,1.758,0,0,0,18.777,32H15.32A1.758,1.758,0,0,0,17.082,33.507Z" transform="translate(-4.205 -10.507)" fill="#1f222b"/>
    <path id="Path_5" data-name="Path 5" d="M22.413,19a9.5,9.5,0,0,1-1.65-1.937,8.386,8.386,0,0,1-.887-3.18V10.617a7.259,7.259,0,0,0-.105-1.183A4.873,4.873,0,0,1,18.3,8.878a5.908,5.908,0,0,1,.263,1.745v3.266a9.454,9.454,0,0,0,1.085,3.867,10.678,10.678,0,0,0,1.6,1.983H4.417a10.678,10.678,0,0,0,1.6-1.983,9.454,9.454,0,0,0,1.085-3.867V10.617a5.834,5.834,0,0,1,1.68-4.126,5.768,5.768,0,0,1,4.091-1.718A5.636,5.636,0,0,1,16,5.725a4.978,4.978,0,0,1-.171-1.157V4.151a6.925,6.925,0,0,0-2.182-.661V2.658a.877.877,0,1,0-1.755,0v.866a7.133,7.133,0,0,0-6.113,7.093v3.266a8.386,8.386,0,0,1-.887,3.18A9.506,9.506,0,0,1,3.273,19a.663.663,0,0,0-.223.5v.9a.659.659,0,0,0,.657.661H21.98a.659.659,0,0,0,.657-.661v-.9A.663.663,0,0,0,22.413,19Z" transform="translate(0 -0.263)" fill="#1f222b"/>
    <path id="Path_6" data-name="Path 6" d="M31.573,4.305A3.286,3.286,0,1,1,28.286,1,3.3,3.3,0,0,1,31.573,4.305Z" transform="translate(-7.523)" fill="#f55a00"/>
  </g>
</svg>
